<?xml version="1.0" encoding="UTF-8"?>
<svg id="Livello_1" data-name="Livello 1" xmlns="http://www.w3.org/2000/svg" viewBox="0 0 786.5 302.39">
  <defs>
    <style>
      .cls-1 {
        fill: #fff;
      }
    </style>
  </defs>
  <path class="cls-1" d="M254.3,301.97c-7.2-1.1-12.3-3.9-15.8-8.9-2.8-4-3-4.9-3-13s.3-9.3,3.5-15.7c6.4-12.7,23.9-27.5,45.3-38.4,5.7-3,8.9-5.2,9.2-6.5.9-3.7,2.5-24.8,1.9-25.6-1-1.7-2.3-.9-3.9,2.2-2.6,4.9-8.7,11.1-13,13-10.9,5-22.1.1-27.6-12.1-1.3-2.8-2.9-4.9-3.6-4.8-.7.2-3.4,3-6,6.3-11.3,14-26.5,16.6-34,5.6-4.3-6.4-4.9-14.9-2.5-37.9,2.7-25.2,2.7-26.3.2-29.5-1.1-1.4-2-2.8-2-3.1s4.4-2.8,9.8-5.6c5.3-2.7,11.7-6.2,14.1-7.7l4.4-2.7-.7,4.5c-5,31-8.3,61.5-7.2,67.3,1,5.5,4.8,9,8.9,8.2,4-.8,6.2-2.8,10.9-10,3.4-5.3,3.8-6.6,3.8-12.5,0-16.4,6.7-35.2,16.1-45.5,10.9-12,26.9-15.1,35.8-7,4.3,3.8,5.6,4.1,6.9,1.8.8-1.4,17.3-8.6,18-7.9.2.2-.1,3.6-.8,7.7-2.2,13.9-4,31.7-9.1,88.3-1.8,20.6-5.8,40.5-10.5,53-10.1,26.3-27.9,39.5-49.1,36.5h0ZM269,291.97c5.3-2.7,11.2-11.2,14.9-21.6,5.3-14.5,10-42.4,7.2-42.4-2.1,0-14.2,7.2-20.1,11.9-14,11.2-21.9,23.7-22.7,35.8-.5,8.1,1.3,12.5,6.6,16,4.2,2.8,9,2.9,14.1.3ZM285.1,194.67c4.4-2.9,9.1-12.3,11.3-22.4,2.3-10.8,3.9-27.5,3.4-34.6-.4-5.2-.9-6.4-3.6-8.8-7-6.3-15.7-1.7-21.7,11.6-4.9,10.7-6,16.4-6,32,0,12.6.2,14.4,2.2,18.2,3.7,6.8,8.3,8.1,14.4,4h0Z"/>
  <path class="cls-1" d="M413.5,274.37c-27.4-1-91.1-7.7-93.1-9.7-.2-.1.5-3,1.6-6.3,1-3.3,2.4-8.8,3-12.2,1-4.7,1.7-6.2,3-6.2.9,0,8.1,1.3,16.1,2.9,66.1,13.6,159.2,17.1,246.1,9.5,44.1-3.8,99.7-12.6,143.8-22.6,7.4-1.7,14.5-3.3,15.8-3.5,1.2-.3,2.2-.3,2.2,0s-5.1,2.2-11.2,4.1c-72.6,22.5-143.2,36.1-218.8,42.1-17.5,1.4-88.5,2.7-108.5,1.9Z"/>
  <path class="cls-1" d="M179.1,239.77c-19.3-19.5-31.9-42.8-59.1-109.3-11.4-27.8-18.2-43.6-25.9-59.9-6-12.7-8.9-17.2-10.3-15.8-.5.5-1.4,14.6-1.9,31.3-.8,29.6-.8,30.4,1.2,34.6,3.2,6.5,10.8,12.6,21.2,16.7,3,1.2,4.3,2.6,6.2,6.8,1.4,2.9,2.5,5.8,2.5,6.4s-2.6,1.8-5.7,2.8c-11,3.5-19.6,9.5-24.2,17-4.8,7.7-8.9,25.2-12.6,53.5-.8,6.2-1.7,11.6-2,11.9-.3.3-.5.1-.5-.4,0-7.2-5.2-39.3-8.1-50.2-6.2-23.3-18-31.8-52.1-37.2-4.3-.7-7.8-1.6-7.8-2s4.2-1.5,9.2-2.5c12.4-2.4,24.9-6,30.6-8.9,10.5-5.3,18.8-18.2,23-35.6,3.9-15.9,7.5-43.6,6.8-53.1-1.1-16.1-5.9-26.5-15.8-33.9-2.6-1.9-4.5-3.6-4.3-3.8.8-.8,12.3,3.1,20,6.8,29.7,14.2,42.6,34.8,79.1,126.5,5.9,14.9,11.2,27.6,11.7,28.3,1.9,2.4,2.6-.4,3.7-14.3,3.7-49.6,4.9-103.5,2.9-124.1-1-10.1-3.8-25.5-5.4-29.6-1.4-3.5,1.1-1.6,5,3.9,7.7,10.8,20,25.7,28.8,35,7.3,7.6,8.5,9.3,6.7,9.3-3.3,0-9.6,6.8-11,11.9-2.4,9-3.8,21.6-7,63.1-.6,7.4-1.5,19.1-2,26-.6,6.9-1.3,24-1.7,38-.6,28.1.1,36.8,4.1,49.5,1.4,4.4,2.4,8.1,2.2,8.2-.2.2-3.5-2.9-7.5-6.9h0Z"/>
  <path class="cls-1" d="M501.4,210.97c-11-1.6-20.1-8.2-24.6-17.9-1.2-2.8-2.8-5.1-3.4-5.1s-3,2.9-5.3,6.4c-9.3,14.4-21.6,20-32.1,14.6-4.1-2.1-6.5-5.6-8.5-12.5-1.5-4.9-3.5-5.5-5.7-1.8-2.8,4.7-11.1,12.5-15.3,14.4-5.6,2.6-12.4,2.4-16.5-.4-9.5-6.3-10.3-16.5-4.5-54.2,2.6-17,.8-23-7-22.8-5.1.1-9.6,4.1-13.7,12-5.6,10.5-8.4,22.2-10.9,44.8-2.1,19.3-1.3,17.7-10.4,20.2-11.6,3.1-11.9,3.1-11.2-1.4.6-3.6,2.9-25.1,6.2-57.8,3.1-30.5,6.5-69.1,6.5-73.5,0-2.8-.8-5.8-2.1-7.9-2.4-4-2.9-3.4,7.1-9,3.4-1.9,9.2-6.1,13-9.3,6.9-5.8,7-5.9,7-3.1,0,1.5-.5,5.7-1,9.3-.9,6.1-3,22.5-8.1,64.8-1.4,11.4-1.8,17.7-1.1,18.4.6.6,2.4-1.2,5.3-5.3,13.7-19.6,35.3-21.2,40.5-3.1,2,6.6,1.6,12.7-2.1,34.7-3.6,22-3.3,27.6,1.9,31.1,3.5,2.2,7.2,1.1,11.3-3.3,5.4-5.7,9.1-13.9,9.7-21.9,2.1-24.1,5.7-61.2,6.1-63,.8-3.5-1.8-4.5-13.7-5.5-6.2-.6-11.4-1.2-11.6-1.3-.1-.2,5.3-1.8,12-3.5,6.8-1.8,12.9-3.8,13.5-4.4.7-.7,1.6-5.2,1.9-10l.7-8.8,4.6-3.1c6.5-4.5,11-8.4,15.9-14,2.3-2.7,4.2-4.5,4.2-3.9s-1,7.7-2.2,15.8c-1.2,8.1-2.2,16.4-2.2,18.3l-.1,3.5,14,.6c7.7.4,16.9.7,20.5.8l6.5.2-8,2.4c-4.4,1.2-13.6,3.7-20.5,5.5s-13.1,3.8-13.8,4.4c-1.1,1.1-1.9,6.1-6.2,43.6-.6,5.2-1.2,16.5-1.3,25-.1,17.2.6,20.4,5.7,22.9,2.5,1.2,3.3,1.1,6.2-.3,3.6-1.7,8.6-7.8,11.4-14.1,1.1-2.4,2.2-8.5,2.8-15,1.5-16.9,6.1-28.3,15.4-37.7,8.1-8.4,14.7-11.2,26.8-11.6,8.8-.3,9.9-.1,15,2.5,9.6,4.9,12.5,15,6.9,24.1-2.4,4-8,6.6-12.7,5.8-4.5-.7-4.6-.9-2.9-4.3,5.7-11,1.2-23.4-8.1-21.9-9.1,1.4-16.6,15-19.2,34.7-1.3,9.4-.2,20.8,2.6,27.4,3.7,9,12.3,14.3,21.3,13.2,6.6-.8,12.3-3.8,18.7-9.9,8.5-8,11.4-13.4,12.6-23.1,3.1-26.4,18.1-46.2,36.8-48.4,6.1-.7,13.3,1.7,15.7,5.3,1.7,2.7,4.1,3.1,5.7.9,1.5-1.9,18-8.6,18.4-7.4.2.5-.6,6.4-1.7,13.2-5.4,32.1-7,57.6-3.9,63.3,2.1,3.8,5.8,5,9.6,3,3.9-2,4.9-3.4,5.8-8.1.9-5.1,5.7-10,11.3-11.5,2.4-.6,4.5-.9,4.7-.7.3.3,0,2.5-.7,5-1.4,5.8.1,13.8,3.6,18.3,4.8,6.3,14,8.2,21.4,4.5,4.4-2.3,6.7-5.4,7.6-10.4,1.5-7.9-3-13.9-17.7-23.8-14.8-10-19.8-15.6-21.3-24.1-1.7-9.2,4.9-19.7,15.5-24.7,5-2.3,6.7-2.6,17.5-2.6s12.5.2,16.9,2.5c6.5,3.2,8.9,6.7,8.9,12.4,0,6.4-3.2,9.5-11.6,11l-3.8.7.6-5.8c.5-4.6.2-6.5-1.3-9.3-4-7.5-13.9-8.8-20.7-2.9-8.5,7.5-4.3,17,12.5,28.2,15.7,10.5,20.8,16.1,23.1,25.2,2.6,10.5-4,22.6-15,27.4-13.9,5.9-35.2,3.9-44.9-4.4-2.2-1.9-4.6-3.5-5.2-3.5-.7,0-3.3,1.8-5.7,4.1-5.3,4.9-9.8,6.9-15.3,6.9-7.9,0-12.4-4.1-15.6-14.2-1-3.2-2.3-5.8-3.1-5.8-.7,0-2.2,1.8-3.3,4-11.8,23.1-37.2,20.7-43.5-4-.7-2.9-1.7-4.5-2.7-4.5-.9,0-3.7,2.8-6.3,6.3-10.1,13.4-25.2,20.3-40.1,18.2h0ZM587.7,193.77c3.2-3,6.7-9.1,8.8-15.3,1.7-5.3,5.4-31.1,5.5-38.3.1-16-13.7-19-23.2-5.1-3.2,4.8-7.4,17-8.8,25.9-3.3,21.3,1.9,37.2,11.8,35.6,1.9-.3,4.6-1.6,5.9-2.8Z"/>
  <path class="cls-1" d="M727.4,209.57c-3.9-1.7-7.9-6.9-9.3-12.1-2.2-8-.8-40.3,3.4-78,1.2-10.5,1.2-13.2.2-14.2-.8-.8-6.2-1.8-12.7-2.4-6.3-.6-11.6-1.2-11.8-1.3-.1-.2,5.3-1.8,12-3.5,6.8-1.8,12.8-3.4,13.4-3.6,1.3-.4,2-3.6,3-13.7.6-6.7.6-6.8,5.2-9.4,2.6-1.5,7.9-6,11.9-10,5.2-5.2,7.3-6.8,7.3-5.5,0,1.1-.9,8.1-2,15.7-1.2,7.6-2,15.2-1.8,16.8l.3,3.1,15,.6c8.3.4,17.3.7,20,.8l5,.2-4.5,1.5c-2.5.7-11.7,3.2-20.5,5.5s-16.4,4.5-16.9,5c-1.2,1.1-2,7-5.1,36.8-2.9,28-3.2,45.4-1,50.6,1.6,3.9,5.2,5.9,9.1,4.9,3.8-1,10.8-9.6,14.5-17.9,1.8-4.1,3.8-7.4,4.3-7.2,2.4.8,1.5,4.7-3,13.6-9.7,19.5-24,28.9-36,23.7h0Z"/>
  <path class="cls-1" d="M222.5,95.57c-1.1-5.4-4.2-9.6-8.7-11.6l-4.1-1.8,3.9-1.7c5.3-2.2,7.9-4.8,10.5-10.8l2.2-5.2,1.2,4.8c1.4,5.5,4.5,9.3,9.5,11.5l3.5,1.5-3.4,1.1c-4.6,1.3-10.9,7.5-11.7,11.5-.9,4.4-2.2,4.8-2.9.7Z"/>
</svg>